Simulation
nRows=36
nColumns=15
endheader
time  TH_x TH_y TH_z SC_y  SC_z  SC_x  AC_y  AC_z  AC_x  GH_y  GH_z  GH_yy  EL_x  PS_y
1.55  0.000000  0.000000  0.000000  -34.08926004347832  5.643725433569848  52.94165260724899  55.824508490814786  -15.843141067302499  -22.945325532639686  20.59339298277841  54.78099443251324  -19.77954109514798  18.29446265790798  0.000000
1.581  0.000000  0.000000  0.000000  -34.17843412363949  5.738453421701892  53.066216860666316  55.90876242403738  -15.779147186784607  -22.732974568607453  20.50914671309471  55.25225363711129  -19.862339350022566  18.24335445067047  0.000000
1.612  0.000000  0.000000  0.000000  -34.25368864647363  5.810145485747966  53.15845203900744  55.98333842931816  -15.723947868371132  -22.555038409236882  20.45548782584014  55.63557498677036  -19.957524944932835  18.19737906641338  0.000000
1.643  0.000000  0.000000  0.000000  -34.31396769691138  5.858409034703852  53.220210950321245  56.04721994981749  -15.677403609352703  -22.414431643451618  20.432598594336753  55.92849190270953  -20.065601609243668  18.156623059169323  0.000000
1.674  0.000000  0.000000  0.000000  -34.358835291761615  5.8831433145443475  53.2526536432673  56.1004343648577  -15.64028952767993  -22.312819058290014  20.43971246020786  56.12973789836308  -20.187102049592394  18.12121266606532  0.000000
1.705  0.000000  0.000000  0.000000  -34.3884798068864  5.884780649319763  53.25525275565705  56.14289456125898  -15.613076807488373  -22.24972930911491  20.475734559414185  56.238980067502276  -20.32157846000992  18.091412426538756  0.000000
1.736  0.000000  0.000000  0.000000  -34.40283054253301  5.863568939759834  53.227745676103076  56.17479578958368  -15.595767245151146  -22.225288837495242  20.539829034804537  56.25609144377562  -20.469163835399456  18.067230599955344  0.000000
1.767  0.000000  0.000000  0.000000  -34.401973037223726  5.819156412598758  53.1707105024261  56.19619040684032  -15.588275083533302  -22.23949860926216  20.631310032758936  56.1808620686545  -20.628973809284854  18.048666139477113  0.000000
1.798  0.000000  0.000000  0.000000  -34.386465057614096  5.751162009913042  53.08426314036717  56.20803950807327  -15.590755037795772  -22.29174588925791  20.749130574637842  56.01359094737814  -20.800419660403175  18.035786363070233  0.000000
1.829  0.000000  0.000000  0.000000  -34.357290851585724  5.65953265273293  52.967255673101846  56.21114118749758  -15.602783378265709  -22.379637875219824  20.892306400584815  55.754836137697474  -20.9821877395616  18.02863790933241  0.000000
1.8599999999999999  0.000000  0.000000  0.000000  -34.31542568358859  5.544638886880049  52.81794451518132  56.20671654298441  -15.623985225307104  -22.5001377701841  21.059434594177016  55.40574568354378  -21.173200338081905  18.027234542867344  0.000000
1.891  0.000000  0.000000  0.000000  -34.26208721880176  5.407160920871475  52.63522633489165  56.19554086042751  -15.65429518749835  -22.649590558024187  21.249128742088423  54.967501018902894  -21.371266924149346  18.031624442486006  0.000000
1.922  0.000000  0.000000  0.000000  -34.19863211039694  5.247760112677205  52.41778212578178  56.17921945444307  -15.693902676449614  -22.823801535770546  21.459432786455295  54.44177117873741  -21.5743990238104  18.04179159693706  0.000000
1.953  0.000000  0.000000  0.000000  -34.12689149293673  5.066896143195931  52.16423455519296  56.15930480476596  -15.743155356924097  -23.017617338970787  21.68830013843893  53.83052235592135  -21.77948302171962  18.05781398263593  0.000000
1.984  0.000000  0.000000  0.000000  -34.049026195843055  4.865364994731915  51.872741999315735  56.13807723824715  -15.803081849872239  -23.225195677228573  21.933017036311394  53.13664880986115  -21.983586231311453  18.07967682981783  0.000000
2.015  0.000000  0.000000  0.000000  -33.96747337640457  4.644190373274466  51.54143398239409  56.11726678643547  -15.874754198870512  -23.439907815908143  22.19071485500804  52.36331795508547  -22.18271070982472  18.10734153172733  0.000000
2.046  0.000000  0.000000  0.000000  -33.8843357129684  4.404908024033013  51.16856755782558  56.098281537832456  -15.959515003881245  -23.655508131219822  22.458367256159868  51.51412340930241  -22.373316250799377  18.140743882086397  0.000000
2.077  0.000000  0.000000  0.000000  -33.80132866667313  4.14937352142593  50.75295056115382  56.08130935210074  -16.058593708963908  -23.866035606979356  22.73300381494586  50.59255339801765  -22.551171658630963  18.179727628705688  0.000000
2.108  0.000000  0.000000  0.000000  -33.71947209223437  3.879530510055463  50.29366737268752  56.0660509083424  -16.172725033291442  -24.066538928673722  23.011881101547758  49.602078314518685  -22.712717336955656  18.22424926697698  0.000000
2.139  0.000000  0.000000  0.000000  -33.63915897771162  3.5973592416766187  49.79049919357813  56.05089665191678  -16.301761602152425  -24.253112499709328  23.292926336217786  48.54567307356335  -22.854077761738825  18.27424200719965  0.000000
2.17  0.000000  0.000000  0.000000  -33.56001445197166  3.304873092145972  49.24353943457597  56.033821375723534  -16.445069685162444  -24.422965376794437  23.574247322588523  47.42631619161953  -22.97224992168949  18.32959491240949  0.000000
2.201  0.000000  0.000000  0.000000  -33.48135245851153  3.0040721423798322  48.653397053330174  56.011805565332324  -16.601175216733186  -24.574243290647406  23.85440310617676  46.246571418843615  -23.064037409516448  18.39015368810029  0.000000
2.232  0.000000  0.000000  0.000000  -33.40210856628691  2.69713140634945  48.02107729835452  55.98171833241186  -16.768370538020694  -24.705948560960746  24.13217351811876  45.00898710853143  -23.12733692394527  18.455589870678487  0.000000
2.263  0.000000  0.000000  0.000000  -33.32107897580551  2.386071872136045  47.34820526381877  55.94007208681945  -16.94439108023253  -24.817809414543827  24.40679410950081  43.716036907546595  -23.159784032472498  18.52570299846286  0.000000
2.294  0.000000  0.000000  0.000000  -33.23685706514823  2.072835944788562  46.63707108970087  55.88399843423545  -17.127172604980725  -24.909976553699405  24.677696696401856  42.37029269896453  -23.15979017263779  18.600682795513425  0.000000
2.325  0.000000  0.000000  0.000000  -33.14798281395581  1.759720537828277  45.89034248196501  55.81030263799066  -17.31470826630407  -24.982705805974376  24.94484624706403  40.97434147541062  -23.125438704269843  18.68068412710964  0.000000
2.356  0.000000  0.000000  0.000000  -33.052201729813675  1.448347189425612  45.11086829243112  55.71670642738622  -17.504619974832956  -25.036753256679674  25.207934733843842  39.53079621258116  -23.05577039004914  18.76575523536636  0.000000
2.387  0.000000  0.000000  0.000000  -32.94750796026403  1.1399678701149047  44.30210846267657  55.600950881312926  -17.694130494769333  -25.0734056571255  25.46645177960816  38.04219449178823  -22.94951041416986  18.855726247486597  0.000000
2.418  0.000000  0.000000  0.000000  -32.83291428075272  0.8364211912843302  43.46830641847886  55.46233679193361  -17.88089517194192  -25.093737084022486  25.719377708758252  36.510447178052885  -22.806392408701008  18.95071447946978  0.000000
2.449  0.000000  0.000000  0.000000  -32.70802546200232  0.538669300076174  42.61451334577833  55.3006287205482  -18.062487670299255  -25.099456015175992  25.965372416728346  34.93762423683755  -22.62576994726062  19.050289681476574  0.000000
2.48  0.000000  0.000000  0.000000  -32.57195576796087  0.24748717501332224  41.745793791997144  55.116398144528354  -18.23677228376839  -25.09245909597779  26.20296247592545  33.326043443264766  -22.408142717077602  19.154115882848746  0.000000
2.511  0.000000  0.000000  0.000000  -32.4242460916566  -0.03610106186776436  40.86714712390437  54.90993426851463  -18.40179873429626  -25.074809543969177  26.43145316594384  31.678617074296568  -22.153687279929095  19.26173911439654  0.000000
2.542  0.000000  0.000000  0.000000  -32.26443328451134  -0.3110710554284899  39.98382607774403  54.682373520087765  -18.5559726176975  -25.048506226907286  26.650311310506577  29.998246447624513  -21.8635949609918  19.373203164237143  0.000000
2.573  0.000000  0.000000  0.000000  -32.0925367588236  -0.5763336038183499  39.101431744013986  54.434795460448754  -18.698064776746193  -25.016026653550263  26.8598397040666  28.28848386911976  -21.539003998472978  19.48800365815867  0.000000
2.604  0.000000  0.000000  0.000000  -31.90856088608747  -0.830928662744051  38.22591533910387  54.16893839027659  -18.827087205533747  -24.97984844161066  27.06054003808812  26.55274413509471  -21.18214400943696  19.606512719466657  0.000000
2.635  0.000000  0.000000  0.000000  -31.712903793852064  -1.0737108076627708  37.3633357238862  53.88649856785825  -18.942412239010338  -24.9426953162189  27.254135466751  24.795305349820573  -20.795580700017144  19.728052037679532  0.000000
